/* XPM */
static char *black_xpm[] = {
"32 32 2 1",
"  c NONE",
". c #000000",
"                                ",
"                                ",
"                                ",
"              ....              ",
"             ......             ",
"             ......             ",
"             ......             ",
"             ......             ",
"             ......             ",
"             ......             ",
"             ......             ",
"             ......             ",
"             ......             ",
"      ....................      ",
"   ..........................   ",
"  ............................  ",
"             ......             ",
"             ......             ",
"             ......             ",
"             ......             ",
"             ......             ",
"             ......             ",
"             ......             ",
"             ......             ",
"             ......             ",
"             ......             ",
"             ......             ",
"           ..........           ",
"         ..............         ",
"                                ",
"                                ",
"                                "};